<mxfile host="app.diagrams.net" modified="2023-06-20T21:03:21.508Z" agent="Mozilla/5.0 (Windows NT 10.0; Win64; x64) AppleWebKit/537.36 (KHTML, like Gecko) Chrome/114.0.0.0 Safari/537.36 Edg/114.0.1823.51" etag="VB1vsNz2UGdiruVewc-B" version="21.5.0" type="device">
  <diagram id="C5RBs43oDa-KdzZeNtuy" name="Page-1">
    <mxGraphModel dx="2049" dy="1161" grid="1" gridSize="10" guides="1" tooltips="1" connect="1" arrows="1" fold="1" page="1" pageScale="1" pageWidth="827" pageHeight="1169" math="0" shadow="0">
      <root>
        <mxCell id="WIyWlLk6GJQsqaUBKTNV-0" />
        <mxCell id="WIyWlLk6GJQsqaUBKTNV-1" parent="WIyWlLk6GJQsqaUBKTNV-0" />
        <mxCell id="j1oIZkLDXcbXCa4PP6Nt-3" style="edgeStyle=orthogonalEdgeStyle;rounded=0;orthogonalLoop=1;jettySize=auto;html=1;entryX=0.5;entryY=1;entryDx=0;entryDy=0;" parent="WIyWlLk6GJQsqaUBKTNV-1" source="WIyWlLk6GJQsqaUBKTNV-3" target="j1oIZkLDXcbXCa4PP6Nt-1" edge="1">
          <mxGeometry relative="1" as="geometry" />
        </mxCell>
        <mxCell id="ixq6upu9iqTh1Wx-Dlpp-12" style="edgeStyle=orthogonalEdgeStyle;rounded=0;orthogonalLoop=1;jettySize=auto;html=1;exitX=0;exitY=0.5;exitDx=0;exitDy=0;entryX=0;entryY=0.5;entryDx=0;entryDy=0;" edge="1" parent="WIyWlLk6GJQsqaUBKTNV-1" source="WIyWlLk6GJQsqaUBKTNV-3" target="ixq6upu9iqTh1Wx-Dlpp-3">
          <mxGeometry relative="1" as="geometry">
            <Array as="points">
              <mxPoint x="40" y="180" />
              <mxPoint x="40" y="530" />
            </Array>
          </mxGeometry>
        </mxCell>
        <mxCell id="WIyWlLk6GJQsqaUBKTNV-3" value="Sorbent Properties" style="rounded=1;whiteSpace=wrap;html=1;fontSize=12;glass=0;strokeWidth=1;shadow=0;fillColor=#d5e8d4;strokeColor=#82b366;" parent="WIyWlLk6GJQsqaUBKTNV-1" vertex="1">
          <mxGeometry x="80" y="160" width="120" height="40" as="geometry" />
        </mxCell>
        <mxCell id="j1oIZkLDXcbXCa4PP6Nt-2" value="" style="edgeStyle=orthogonalEdgeStyle;rounded=0;orthogonalLoop=1;jettySize=auto;html=1;" parent="WIyWlLk6GJQsqaUBKTNV-1" source="j1oIZkLDXcbXCa4PP6Nt-0" target="j1oIZkLDXcbXCa4PP6Nt-1" edge="1">
          <mxGeometry relative="1" as="geometry" />
        </mxCell>
        <mxCell id="ixq6upu9iqTh1Wx-Dlpp-13" style="edgeStyle=orthogonalEdgeStyle;rounded=0;orthogonalLoop=1;jettySize=auto;html=1;exitX=0;exitY=0.5;exitDx=0;exitDy=0;entryX=0;entryY=1;entryDx=0;entryDy=0;" edge="1" parent="WIyWlLk6GJQsqaUBKTNV-1" source="j1oIZkLDXcbXCa4PP6Nt-0" target="ixq6upu9iqTh1Wx-Dlpp-3">
          <mxGeometry relative="1" as="geometry">
            <Array as="points">
              <mxPoint x="20" y="100" />
              <mxPoint x="20" y="560" />
            </Array>
          </mxGeometry>
        </mxCell>
        <mxCell id="j1oIZkLDXcbXCa4PP6Nt-0" value="Substrate Properties" style="rounded=1;whiteSpace=wrap;html=1;fontSize=12;glass=0;strokeWidth=1;shadow=0;fillColor=#d5e8d4;strokeColor=#82b366;" parent="WIyWlLk6GJQsqaUBKTNV-1" vertex="1">
          <mxGeometry x="80" y="80" width="120" height="40" as="geometry" />
        </mxCell>
        <mxCell id="j1oIZkLDXcbXCa4PP6Nt-10" style="edgeStyle=orthogonalEdgeStyle;rounded=0;orthogonalLoop=1;jettySize=auto;html=1;entryX=0;entryY=0.5;entryDx=0;entryDy=0;" parent="WIyWlLk6GJQsqaUBKTNV-1" source="j1oIZkLDXcbXCa4PP6Nt-1" target="j1oIZkLDXcbXCa4PP6Nt-9" edge="1">
          <mxGeometry relative="1" as="geometry" />
        </mxCell>
        <mxCell id="j1oIZkLDXcbXCa4PP6Nt-1" value="Material Model" style="whiteSpace=wrap;html=1;rounded=0;glass=0;strokeWidth=1;shadow=0;" parent="WIyWlLk6GJQsqaUBKTNV-1" vertex="1">
          <mxGeometry x="280" y="70" width="120" height="60" as="geometry" />
        </mxCell>
        <mxCell id="j1oIZkLDXcbXCa4PP6Nt-13" style="edgeStyle=orthogonalEdgeStyle;rounded=0;orthogonalLoop=1;jettySize=auto;html=1;entryX=0;entryY=0.5;entryDx=0;entryDy=0;" parent="WIyWlLk6GJQsqaUBKTNV-1" source="j1oIZkLDXcbXCa4PP6Nt-4" target="j1oIZkLDXcbXCa4PP6Nt-11" edge="1">
          <mxGeometry relative="1" as="geometry" />
        </mxCell>
        <mxCell id="ixq6upu9iqTh1Wx-Dlpp-11" style="edgeStyle=orthogonalEdgeStyle;rounded=0;orthogonalLoop=1;jettySize=auto;html=1;exitX=0;exitY=0.5;exitDx=0;exitDy=0;entryX=0;entryY=0;entryDx=0;entryDy=0;" edge="1" parent="WIyWlLk6GJQsqaUBKTNV-1" source="j1oIZkLDXcbXCa4PP6Nt-4" target="ixq6upu9iqTh1Wx-Dlpp-3">
          <mxGeometry relative="1" as="geometry">
            <Array as="points">
              <mxPoint x="60" y="260" />
              <mxPoint x="60" y="500" />
            </Array>
          </mxGeometry>
        </mxCell>
        <mxCell id="j1oIZkLDXcbXCa4PP6Nt-4" value="Sorbent Kinetic Data" style="rounded=1;whiteSpace=wrap;html=1;fontSize=12;glass=0;strokeWidth=1;shadow=0;fillColor=#d5e8d4;strokeColor=#82b366;" parent="WIyWlLk6GJQsqaUBKTNV-1" vertex="1">
          <mxGeometry x="80" y="240" width="120" height="40" as="geometry" />
        </mxCell>
        <mxCell id="j1oIZkLDXcbXCa4PP6Nt-12" value="" style="edgeStyle=orthogonalEdgeStyle;rounded=0;orthogonalLoop=1;jettySize=auto;html=1;" parent="WIyWlLk6GJQsqaUBKTNV-1" source="j1oIZkLDXcbXCa4PP6Nt-9" target="j1oIZkLDXcbXCa4PP6Nt-11" edge="1">
          <mxGeometry relative="1" as="geometry" />
        </mxCell>
        <mxCell id="j1oIZkLDXcbXCa4PP6Nt-9" value="Sorbent Loading" style="rounded=1;whiteSpace=wrap;html=1;fontSize=12;glass=0;strokeWidth=1;shadow=0;" parent="WIyWlLk6GJQsqaUBKTNV-1" vertex="1">
          <mxGeometry x="480" y="80" width="120" height="40" as="geometry" />
        </mxCell>
        <mxCell id="j1oIZkLDXcbXCa4PP6Nt-22" value="" style="edgeStyle=orthogonalEdgeStyle;rounded=0;orthogonalLoop=1;jettySize=auto;html=1;" parent="WIyWlLk6GJQsqaUBKTNV-1" source="j1oIZkLDXcbXCa4PP6Nt-11" target="j1oIZkLDXcbXCa4PP6Nt-21" edge="1">
          <mxGeometry relative="1" as="geometry" />
        </mxCell>
        <mxCell id="ixq6upu9iqTh1Wx-Dlpp-8" style="edgeStyle=orthogonalEdgeStyle;rounded=0;orthogonalLoop=1;jettySize=auto;html=1;exitX=0.25;exitY=1;exitDx=0;exitDy=0;entryX=0.5;entryY=0;entryDx=0;entryDy=0;" edge="1" parent="WIyWlLk6GJQsqaUBKTNV-1" source="j1oIZkLDXcbXCa4PP6Nt-11" target="j1oIZkLDXcbXCa4PP6Nt-16">
          <mxGeometry relative="1" as="geometry" />
        </mxCell>
        <mxCell id="ixq6upu9iqTh1Wx-Dlpp-9" style="edgeStyle=orthogonalEdgeStyle;rounded=0;orthogonalLoop=1;jettySize=auto;html=1;exitX=0.5;exitY=1;exitDx=0;exitDy=0;entryX=0.5;entryY=0;entryDx=0;entryDy=0;" edge="1" parent="WIyWlLk6GJQsqaUBKTNV-1" source="j1oIZkLDXcbXCa4PP6Nt-11" target="ixq6upu9iqTh1Wx-Dlpp-0">
          <mxGeometry relative="1" as="geometry" />
        </mxCell>
        <mxCell id="j1oIZkLDXcbXCa4PP6Nt-11" value="Adsorption Process Model" style="whiteSpace=wrap;html=1;rounded=0;glass=0;strokeWidth=1;shadow=0;" parent="WIyWlLk6GJQsqaUBKTNV-1" vertex="1">
          <mxGeometry x="480" y="230" width="120" height="60" as="geometry" />
        </mxCell>
        <mxCell id="ixq6upu9iqTh1Wx-Dlpp-6" style="edgeStyle=orthogonalEdgeStyle;rounded=0;orthogonalLoop=1;jettySize=auto;html=1;exitX=0.5;exitY=1;exitDx=0;exitDy=0;entryX=0.25;entryY=0;entryDx=0;entryDy=0;" edge="1" parent="WIyWlLk6GJQsqaUBKTNV-1" source="j1oIZkLDXcbXCa4PP6Nt-16" target="ixq6upu9iqTh1Wx-Dlpp-3">
          <mxGeometry relative="1" as="geometry" />
        </mxCell>
        <mxCell id="j1oIZkLDXcbXCa4PP6Nt-16" value="Mass of CO2 Captured per &lt;br&gt;Mass of Sorbent &lt;br&gt;per second" style="rounded=1;whiteSpace=wrap;html=1;fontSize=12;glass=0;strokeWidth=1;shadow=0;" parent="WIyWlLk6GJQsqaUBKTNV-1" vertex="1">
          <mxGeometry x="360" y="360" width="120" height="70" as="geometry" />
        </mxCell>
        <mxCell id="j1oIZkLDXcbXCa4PP6Nt-19" style="edgeStyle=orthogonalEdgeStyle;rounded=0;orthogonalLoop=1;jettySize=auto;html=1;entryX=0;entryY=0.75;entryDx=0;entryDy=0;exitX=1;exitY=0.5;exitDx=0;exitDy=0;" parent="WIyWlLk6GJQsqaUBKTNV-1" source="j1oIZkLDXcbXCa4PP6Nt-18" target="j1oIZkLDXcbXCa4PP6Nt-11" edge="1">
          <mxGeometry relative="1" as="geometry">
            <Array as="points">
              <mxPoint x="320" y="370" />
              <mxPoint x="320" y="275" />
            </Array>
          </mxGeometry>
        </mxCell>
        <mxCell id="j1oIZkLDXcbXCa4PP6Nt-18" value="WHSV + &lt;br&gt;Ambient Temp, Pressure, %RH" style="rounded=1;whiteSpace=wrap;html=1;fontSize=12;glass=0;strokeWidth=1;shadow=0;fillColor=#d5e8d4;strokeColor=#82b366;" parent="WIyWlLk6GJQsqaUBKTNV-1" vertex="1">
          <mxGeometry x="80" y="340" width="120" height="60" as="geometry" />
        </mxCell>
        <mxCell id="j1oIZkLDXcbXCa4PP6Nt-24" value="" style="edgeStyle=orthogonalEdgeStyle;rounded=0;orthogonalLoop=1;jettySize=auto;html=1;" parent="WIyWlLk6GJQsqaUBKTNV-1" source="j1oIZkLDXcbXCa4PP6Nt-21" target="j1oIZkLDXcbXCa4PP6Nt-23" edge="1">
          <mxGeometry relative="1" as="geometry" />
        </mxCell>
        <mxCell id="j1oIZkLDXcbXCa4PP6Nt-21" value="Volumetric Air Flowrate" style="whiteSpace=wrap;html=1;rounded=1;glass=0;strokeWidth=1;shadow=0;" parent="WIyWlLk6GJQsqaUBKTNV-1" vertex="1">
          <mxGeometry x="680" y="230" width="120" height="60" as="geometry" />
        </mxCell>
        <mxCell id="j1oIZkLDXcbXCa4PP6Nt-26" value="" style="edgeStyle=orthogonalEdgeStyle;rounded=0;orthogonalLoop=1;jettySize=auto;html=1;" parent="WIyWlLk6GJQsqaUBKTNV-1" source="j1oIZkLDXcbXCa4PP6Nt-23" target="j1oIZkLDXcbXCa4PP6Nt-25" edge="1">
          <mxGeometry relative="1" as="geometry" />
        </mxCell>
        <mxCell id="j1oIZkLDXcbXCa4PP6Nt-23" value="Fan Sizing Model" style="whiteSpace=wrap;html=1;rounded=0;glass=0;strokeWidth=1;shadow=0;" parent="WIyWlLk6GJQsqaUBKTNV-1" vertex="1">
          <mxGeometry x="880" y="230" width="120" height="60" as="geometry" />
        </mxCell>
        <mxCell id="ixq6upu9iqTh1Wx-Dlpp-21" style="edgeStyle=orthogonalEdgeStyle;rounded=0;orthogonalLoop=1;jettySize=auto;html=1;entryX=0.75;entryY=0;entryDx=0;entryDy=0;" edge="1" parent="WIyWlLk6GJQsqaUBKTNV-1" source="j1oIZkLDXcbXCa4PP6Nt-25" target="ixq6upu9iqTh1Wx-Dlpp-18">
          <mxGeometry relative="1" as="geometry" />
        </mxCell>
        <mxCell id="j1oIZkLDXcbXCa4PP6Nt-25" value="Fan (Adsorption) Power Requirement" style="whiteSpace=wrap;html=1;rounded=1;glass=0;strokeWidth=1;shadow=0;" parent="WIyWlLk6GJQsqaUBKTNV-1" vertex="1">
          <mxGeometry x="880" y="510" width="120" height="40" as="geometry" />
        </mxCell>
        <mxCell id="ixq6upu9iqTh1Wx-Dlpp-7" style="edgeStyle=orthogonalEdgeStyle;rounded=0;orthogonalLoop=1;jettySize=auto;html=1;entryX=0.75;entryY=0;entryDx=0;entryDy=0;" edge="1" parent="WIyWlLk6GJQsqaUBKTNV-1" source="ixq6upu9iqTh1Wx-Dlpp-0" target="ixq6upu9iqTh1Wx-Dlpp-3">
          <mxGeometry relative="1" as="geometry" />
        </mxCell>
        <mxCell id="ixq6upu9iqTh1Wx-Dlpp-0" value="Mass of H2O Captured per &lt;br&gt;Mass of Sorbent &lt;br&gt;per second" style="rounded=1;whiteSpace=wrap;html=1;fontSize=12;glass=0;strokeWidth=1;shadow=0;" vertex="1" parent="WIyWlLk6GJQsqaUBKTNV-1">
          <mxGeometry x="600" y="360" width="120" height="70" as="geometry" />
        </mxCell>
        <mxCell id="ixq6upu9iqTh1Wx-Dlpp-4" style="edgeStyle=orthogonalEdgeStyle;rounded=0;orthogonalLoop=1;jettySize=auto;html=1;entryX=0.75;entryY=1;entryDx=0;entryDy=0;exitX=1;exitY=0.5;exitDx=0;exitDy=0;" edge="1" parent="WIyWlLk6GJQsqaUBKTNV-1" source="ixq6upu9iqTh1Wx-Dlpp-2" target="ixq6upu9iqTh1Wx-Dlpp-3">
          <mxGeometry relative="1" as="geometry">
            <Array as="points">
              <mxPoint x="570" y="700" />
            </Array>
          </mxGeometry>
        </mxCell>
        <mxCell id="ixq6upu9iqTh1Wx-Dlpp-2" value="Desorption Duration" style="rounded=1;whiteSpace=wrap;html=1;fontSize=12;glass=0;strokeWidth=1;shadow=0;fillColor=#d5e8d4;strokeColor=#82b366;" vertex="1" parent="WIyWlLk6GJQsqaUBKTNV-1">
          <mxGeometry x="80" y="680" width="120" height="40" as="geometry" />
        </mxCell>
        <mxCell id="ixq6upu9iqTh1Wx-Dlpp-16" value="" style="edgeStyle=orthogonalEdgeStyle;rounded=0;orthogonalLoop=1;jettySize=auto;html=1;" edge="1" parent="WIyWlLk6GJQsqaUBKTNV-1" source="ixq6upu9iqTh1Wx-Dlpp-3" target="ixq6upu9iqTh1Wx-Dlpp-15">
          <mxGeometry relative="1" as="geometry" />
        </mxCell>
        <mxCell id="ixq6upu9iqTh1Wx-Dlpp-3" value="Desorption Process Model" style="whiteSpace=wrap;html=1;rounded=0;glass=0;strokeWidth=1;shadow=0;" vertex="1" parent="WIyWlLk6GJQsqaUBKTNV-1">
          <mxGeometry x="480" y="500" width="120" height="60" as="geometry" />
        </mxCell>
        <mxCell id="ixq6upu9iqTh1Wx-Dlpp-20" style="edgeStyle=orthogonalEdgeStyle;rounded=0;orthogonalLoop=1;jettySize=auto;html=1;exitX=0.5;exitY=1;exitDx=0;exitDy=0;entryX=0.25;entryY=0;entryDx=0;entryDy=0;" edge="1" parent="WIyWlLk6GJQsqaUBKTNV-1" source="ixq6upu9iqTh1Wx-Dlpp-15" target="ixq6upu9iqTh1Wx-Dlpp-18">
          <mxGeometry relative="1" as="geometry" />
        </mxCell>
        <mxCell id="ixq6upu9iqTh1Wx-Dlpp-15" value="Desorption Power Requirement" style="whiteSpace=wrap;html=1;rounded=1;glass=0;strokeWidth=1;shadow=0;" vertex="1" parent="WIyWlLk6GJQsqaUBKTNV-1">
          <mxGeometry x="680" y="510" width="120" height="40" as="geometry" />
        </mxCell>
        <mxCell id="ixq6upu9iqTh1Wx-Dlpp-19" style="edgeStyle=orthogonalEdgeStyle;rounded=0;orthogonalLoop=1;jettySize=auto;html=1;exitX=1;exitY=0.5;exitDx=0;exitDy=0;entryX=0;entryY=0.5;entryDx=0;entryDy=0;" edge="1" parent="WIyWlLk6GJQsqaUBKTNV-1" source="ixq6upu9iqTh1Wx-Dlpp-17" target="ixq6upu9iqTh1Wx-Dlpp-18">
          <mxGeometry relative="1" as="geometry" />
        </mxCell>
        <mxCell id="ixq6upu9iqTh1Wx-Dlpp-17" value="Target CO2 Capture Capacity" style="rounded=1;whiteSpace=wrap;html=1;fontSize=12;glass=0;strokeWidth=1;shadow=0;fillColor=#d5e8d4;strokeColor=#82b366;" vertex="1" parent="WIyWlLk6GJQsqaUBKTNV-1">
          <mxGeometry x="80" y="750" width="120" height="40" as="geometry" />
        </mxCell>
        <mxCell id="ixq6upu9iqTh1Wx-Dlpp-28" style="edgeStyle=orthogonalEdgeStyle;rounded=0;orthogonalLoop=1;jettySize=auto;html=1;exitX=1;exitY=0;exitDx=0;exitDy=0;entryX=0;entryY=0.5;entryDx=0;entryDy=0;" edge="1" parent="WIyWlLk6GJQsqaUBKTNV-1" source="ixq6upu9iqTh1Wx-Dlpp-18" target="ixq6upu9iqTh1Wx-Dlpp-24">
          <mxGeometry relative="1" as="geometry" />
        </mxCell>
        <mxCell id="ixq6upu9iqTh1Wx-Dlpp-29" style="edgeStyle=orthogonalEdgeStyle;rounded=0;orthogonalLoop=1;jettySize=auto;html=1;exitX=1;exitY=0.25;exitDx=0;exitDy=0;entryX=0;entryY=0.5;entryDx=0;entryDy=0;" edge="1" parent="WIyWlLk6GJQsqaUBKTNV-1" source="ixq6upu9iqTh1Wx-Dlpp-18" target="ixq6upu9iqTh1Wx-Dlpp-22">
          <mxGeometry relative="1" as="geometry" />
        </mxCell>
        <mxCell id="ixq6upu9iqTh1Wx-Dlpp-30" style="edgeStyle=orthogonalEdgeStyle;rounded=0;orthogonalLoop=1;jettySize=auto;html=1;exitX=1;exitY=0.75;exitDx=0;exitDy=0;entryX=0;entryY=0.5;entryDx=0;entryDy=0;" edge="1" parent="WIyWlLk6GJQsqaUBKTNV-1" source="ixq6upu9iqTh1Wx-Dlpp-18" target="ixq6upu9iqTh1Wx-Dlpp-26">
          <mxGeometry relative="1" as="geometry" />
        </mxCell>
        <mxCell id="ixq6upu9iqTh1Wx-Dlpp-31" style="edgeStyle=orthogonalEdgeStyle;rounded=0;orthogonalLoop=1;jettySize=auto;html=1;exitX=1;exitY=1;exitDx=0;exitDy=0;entryX=0;entryY=0.5;entryDx=0;entryDy=0;" edge="1" parent="WIyWlLk6GJQsqaUBKTNV-1" source="ixq6upu9iqTh1Wx-Dlpp-18" target="ixq6upu9iqTh1Wx-Dlpp-27">
          <mxGeometry relative="1" as="geometry" />
        </mxCell>
        <mxCell id="ixq6upu9iqTh1Wx-Dlpp-18" value="Facility Sizing Model" style="whiteSpace=wrap;html=1;rounded=0;glass=0;strokeWidth=1;shadow=0;" vertex="1" parent="WIyWlLk6GJQsqaUBKTNV-1">
          <mxGeometry x="780" y="740" width="120" height="60" as="geometry" />
        </mxCell>
        <mxCell id="ixq6upu9iqTh1Wx-Dlpp-33" style="edgeStyle=orthogonalEdgeStyle;rounded=0;orthogonalLoop=1;jettySize=auto;html=1;exitX=1;exitY=0.5;exitDx=0;exitDy=0;entryX=0;entryY=0.25;entryDx=0;entryDy=0;" edge="1" parent="WIyWlLk6GJQsqaUBKTNV-1" source="ixq6upu9iqTh1Wx-Dlpp-22" target="ixq6upu9iqTh1Wx-Dlpp-25">
          <mxGeometry relative="1" as="geometry" />
        </mxCell>
        <mxCell id="ixq6upu9iqTh1Wx-Dlpp-22" value="Total Land Requirement" style="whiteSpace=wrap;html=1;rounded=1;glass=0;strokeWidth=1;shadow=0;" vertex="1" parent="WIyWlLk6GJQsqaUBKTNV-1">
          <mxGeometry x="1040" y="720" width="120" height="40" as="geometry" />
        </mxCell>
        <mxCell id="ixq6upu9iqTh1Wx-Dlpp-32" style="edgeStyle=orthogonalEdgeStyle;rounded=0;orthogonalLoop=1;jettySize=auto;html=1;exitX=1;exitY=0.5;exitDx=0;exitDy=0;entryX=0;entryY=0;entryDx=0;entryDy=0;" edge="1" parent="WIyWlLk6GJQsqaUBKTNV-1" source="ixq6upu9iqTh1Wx-Dlpp-24" target="ixq6upu9iqTh1Wx-Dlpp-25">
          <mxGeometry relative="1" as="geometry" />
        </mxCell>
        <mxCell id="ixq6upu9iqTh1Wx-Dlpp-24" value="Total Power Requirement" style="whiteSpace=wrap;html=1;rounded=1;glass=0;strokeWidth=1;shadow=0;" vertex="1" parent="WIyWlLk6GJQsqaUBKTNV-1">
          <mxGeometry x="1040" y="660" width="120" height="40" as="geometry" />
        </mxCell>
        <mxCell id="ixq6upu9iqTh1Wx-Dlpp-38" value="" style="edgeStyle=orthogonalEdgeStyle;rounded=0;orthogonalLoop=1;jettySize=auto;html=1;" edge="1" parent="WIyWlLk6GJQsqaUBKTNV-1" source="ixq6upu9iqTh1Wx-Dlpp-25" target="ixq6upu9iqTh1Wx-Dlpp-37">
          <mxGeometry relative="1" as="geometry" />
        </mxCell>
        <mxCell id="ixq6upu9iqTh1Wx-Dlpp-25" value="Cost Model" style="whiteSpace=wrap;html=1;rounded=0;glass=0;strokeWidth=1;shadow=0;" vertex="1" parent="WIyWlLk6GJQsqaUBKTNV-1">
          <mxGeometry x="1241" y="740" width="120" height="60" as="geometry" />
        </mxCell>
        <mxCell id="ixq6upu9iqTh1Wx-Dlpp-34" style="edgeStyle=orthogonalEdgeStyle;rounded=0;orthogonalLoop=1;jettySize=auto;html=1;exitX=1;exitY=0.5;exitDx=0;exitDy=0;entryX=0;entryY=0.75;entryDx=0;entryDy=0;" edge="1" parent="WIyWlLk6GJQsqaUBKTNV-1" source="ixq6upu9iqTh1Wx-Dlpp-26" target="ixq6upu9iqTh1Wx-Dlpp-25">
          <mxGeometry relative="1" as="geometry" />
        </mxCell>
        <mxCell id="ixq6upu9iqTh1Wx-Dlpp-26" value="Total Substrate Requirement" style="whiteSpace=wrap;html=1;rounded=1;glass=0;strokeWidth=1;shadow=0;" vertex="1" parent="WIyWlLk6GJQsqaUBKTNV-1">
          <mxGeometry x="1040" y="780" width="120" height="40" as="geometry" />
        </mxCell>
        <mxCell id="ixq6upu9iqTh1Wx-Dlpp-35" style="edgeStyle=orthogonalEdgeStyle;rounded=0;orthogonalLoop=1;jettySize=auto;html=1;exitX=1;exitY=0.5;exitDx=0;exitDy=0;entryX=0;entryY=1;entryDx=0;entryDy=0;" edge="1" parent="WIyWlLk6GJQsqaUBKTNV-1" source="ixq6upu9iqTh1Wx-Dlpp-27" target="ixq6upu9iqTh1Wx-Dlpp-25">
          <mxGeometry relative="1" as="geometry" />
        </mxCell>
        <mxCell id="ixq6upu9iqTh1Wx-Dlpp-27" value="Total Sorbent Requirement" style="whiteSpace=wrap;html=1;rounded=1;glass=0;strokeWidth=1;shadow=0;fillColor=#fff2cc;strokeColor=#d6b656;" vertex="1" parent="WIyWlLk6GJQsqaUBKTNV-1">
          <mxGeometry x="1040" y="840" width="120" height="40" as="geometry" />
        </mxCell>
        <mxCell id="ixq6upu9iqTh1Wx-Dlpp-37" value="CO2 Capture Cost ($/ton-CO2)" style="whiteSpace=wrap;html=1;rounded=1;glass=0;strokeWidth=1;shadow=0;fillColor=#e1d5e7;strokeColor=#9673a6;" vertex="1" parent="WIyWlLk6GJQsqaUBKTNV-1">
          <mxGeometry x="1441" y="750" width="120" height="40" as="geometry" />
        </mxCell>
        <mxCell id="ixq6upu9iqTh1Wx-Dlpp-39" value="Sorbent Loading" style="rounded=1;whiteSpace=wrap;html=1;fontSize=12;glass=0;strokeWidth=1;shadow=0;fillColor=#fff2cc;strokeColor=#d6b656;" vertex="1" parent="WIyWlLk6GJQsqaUBKTNV-1">
          <mxGeometry x="480" y="80" width="120" height="40" as="geometry" />
        </mxCell>
        <mxCell id="ixq6upu9iqTh1Wx-Dlpp-40" value="Volumetric Air Flowrate" style="whiteSpace=wrap;html=1;rounded=1;glass=0;strokeWidth=1;shadow=0;fillColor=#fff2cc;strokeColor=#d6b656;" vertex="1" parent="WIyWlLk6GJQsqaUBKTNV-1">
          <mxGeometry x="680" y="230" width="120" height="60" as="geometry" />
        </mxCell>
        <mxCell id="ixq6upu9iqTh1Wx-Dlpp-41" value="Mass of H2O Captured per &lt;br&gt;Mass of Sorbent &lt;br&gt;per second" style="rounded=1;whiteSpace=wrap;html=1;fontSize=12;glass=0;strokeWidth=1;shadow=0;fillColor=#fff2cc;strokeColor=#d6b656;" vertex="1" parent="WIyWlLk6GJQsqaUBKTNV-1">
          <mxGeometry x="600" y="360" width="120" height="70" as="geometry" />
        </mxCell>
        <mxCell id="ixq6upu9iqTh1Wx-Dlpp-42" value="Mass of CO2 Captured per &lt;br&gt;Mass of Sorbent &lt;br&gt;per second" style="rounded=1;whiteSpace=wrap;html=1;fontSize=12;glass=0;strokeWidth=1;shadow=0;fillColor=#fff2cc;strokeColor=#d6b656;" vertex="1" parent="WIyWlLk6GJQsqaUBKTNV-1">
          <mxGeometry x="360" y="360" width="120" height="70" as="geometry" />
        </mxCell>
        <mxCell id="ixq6upu9iqTh1Wx-Dlpp-43" value="Desorption Power Requirement" style="whiteSpace=wrap;html=1;rounded=1;glass=0;strokeWidth=1;shadow=0;fillColor=#fff2cc;strokeColor=#d6b656;" vertex="1" parent="WIyWlLk6GJQsqaUBKTNV-1">
          <mxGeometry x="680" y="510" width="120" height="40" as="geometry" />
        </mxCell>
        <mxCell id="ixq6upu9iqTh1Wx-Dlpp-44" value="Fan (Adsorption) Power Requirement" style="whiteSpace=wrap;html=1;rounded=1;glass=0;strokeWidth=1;shadow=0;fillColor=#fff2cc;strokeColor=#d6b656;" vertex="1" parent="WIyWlLk6GJQsqaUBKTNV-1">
          <mxGeometry x="880" y="510" width="120" height="40" as="geometry" />
        </mxCell>
        <mxCell id="ixq6upu9iqTh1Wx-Dlpp-45" value="Total Power Requirement" style="whiteSpace=wrap;html=1;rounded=1;glass=0;strokeWidth=1;shadow=0;fillColor=#fff2cc;strokeColor=#d6b656;" vertex="1" parent="WIyWlLk6GJQsqaUBKTNV-1">
          <mxGeometry x="1040" y="660" width="120" height="40" as="geometry" />
        </mxCell>
        <mxCell id="ixq6upu9iqTh1Wx-Dlpp-46" value="Total Land Requirement" style="whiteSpace=wrap;html=1;rounded=1;glass=0;strokeWidth=1;shadow=0;fillColor=#fff2cc;strokeColor=#d6b656;" vertex="1" parent="WIyWlLk6GJQsqaUBKTNV-1">
          <mxGeometry x="1040" y="720" width="120" height="40" as="geometry" />
        </mxCell>
        <mxCell id="ixq6upu9iqTh1Wx-Dlpp-47" value="Total Substrate Requirement" style="whiteSpace=wrap;html=1;rounded=1;glass=0;strokeWidth=1;shadow=0;fillColor=#fff2cc;strokeColor=#d6b656;" vertex="1" parent="WIyWlLk6GJQsqaUBKTNV-1">
          <mxGeometry x="1040" y="780" width="120" height="40" as="geometry" />
        </mxCell>
        <mxCell id="ixq6upu9iqTh1Wx-Dlpp-49" style="edgeStyle=orthogonalEdgeStyle;rounded=0;orthogonalLoop=1;jettySize=auto;html=1;exitX=1;exitY=0.5;exitDx=0;exitDy=0;entryX=0.25;entryY=1;entryDx=0;entryDy=0;" edge="1" parent="WIyWlLk6GJQsqaUBKTNV-1" source="ixq6upu9iqTh1Wx-Dlpp-48" target="ixq6upu9iqTh1Wx-Dlpp-3">
          <mxGeometry relative="1" as="geometry" />
        </mxCell>
        <mxCell id="ixq6upu9iqTh1Wx-Dlpp-48" value="Adsorption Duration" style="rounded=1;whiteSpace=wrap;html=1;fontSize=12;glass=0;strokeWidth=1;shadow=0;fillColor=#d5e8d4;strokeColor=#82b366;" vertex="1" parent="WIyWlLk6GJQsqaUBKTNV-1">
          <mxGeometry x="80" y="610" width="120" height="40" as="geometry" />
        </mxCell>
      </root>
    </mxGraphModel>
  </diagram>
</mxfile>
